REM DIRINDEX 1\2\4,1\2\5,1\2\6,1\3\7,1\3\8,1\3\9,1\3\10
REM DIRNAME folder01,folder02,folder03,folder04,folder05,folder06,folder07,folder08,folder09,folder10
TITLE ""
FILE "b_085.mp3" MP3
  TRACK 01 AUDIO
    TITLE "0:"
    INDEX 01 00:00:00
  TRACK 02 AUDIO
    TITLE "7:cjc057_06413"
    INDEX 01 00:00:13
  TRACK 03 AUDIO
    TITLE "0:"
    INDEX 01 00:01:22
  TRACK 04 AUDIO
    TITLE "8:cjc057_06414"
    INDEX 01 00:01:54
  TRACK 05 AUDIO
    TITLE "0:"
    INDEX 01 00:02:61
  TRACK 06 AUDIO
    TITLE "9:cjc057_06415"
    INDEX 01 00:03:27
  TRACK 07 AUDIO
    TITLE "0:"
    INDEX 01 00:06:55
  TRACK 08 AUDIO
    TITLE "7:cjc057_06416"
    INDEX 01 00:07:58
  TRACK 09 AUDIO
    TITLE "0:"
    INDEX 01 00:09:00
  TRACK 10 AUDIO
    TITLE "8:cjc057_06417"
    INDEX 01 00:09:34
  TRACK 11 AUDIO
    TITLE "0:"
    INDEX 01 00:10:55
  TRACK 12 AUDIO
    TITLE "9:cjc057_06418"
    INDEX 01 00:11:21
  TRACK 13 AUDIO
    TITLE "0:"
    INDEX 01 00:14:31
  TRACK 14 AUDIO
    TITLE "7:cjc057_06419"
    INDEX 01 00:15:40
  TRACK 15 AUDIO
    TITLE "0:"
    INDEX 01 00:16:53
  TRACK 16 AUDIO
    TITLE "8:cjc057_06420"
    INDEX 01 00:17:12
  TRACK 17 AUDIO
    TITLE "0:"
    INDEX 01 00:18:31
  TRACK 18 AUDIO
    TITLE "9:cjc057_06421"
    INDEX 01 00:18:72
  TRACK 19 AUDIO
    TITLE "0:"
    INDEX 01 00:22:09
  TRACK 20 AUDIO
    TITLE "7:cjc057_06422"
    INDEX 01 00:23:16
  TRACK 21 AUDIO
    TITLE "0:"
    INDEX 01 00:24:20
  TRACK 22 AUDIO
    TITLE "8:cjc057_06423"
    INDEX 01 00:24:55
  TRACK 23 AUDIO
    TITLE "0:"
    INDEX 01 00:27:41
  TRACK 24 AUDIO
    TITLE "9:cjc057_06424"
    INDEX 01 00:28:12
  TRACK 25 AUDIO
    TITLE "0:"
    INDEX 01 00:30:73
  TRACK 26 AUDIO
    TITLE "7:cjc057_06425"
    INDEX 01 00:32:01
  TRACK 27 AUDIO
    TITLE "0:"
    INDEX 01 00:33:15
  TRACK 28 AUDIO
    TITLE "8:cjc057_06426"
    INDEX 01 00:33:50
  TRACK 29 AUDIO
    TITLE "0:"
    INDEX 01 00:34:57
  TRACK 30 AUDIO
    TITLE "9:cjc057_06427"
    INDEX 01 00:35:25
  TRACK 31 AUDIO
    TITLE "0:"
    INDEX 01 00:38:39
  TRACK 32 AUDIO
    TITLE "7:cjc057_06428"
    INDEX 01 00:39:45
  TRACK 33 AUDIO
    TITLE "0:"
    INDEX 01 00:40:62
  TRACK 34 AUDIO
    TITLE "8:cjc057_06429"
    INDEX 01 00:41:22
  TRACK 35 AUDIO
    TITLE "0:"
    INDEX 01 00:43:27
  TRACK 36 AUDIO
    TITLE "9:cjc057_06430"
    INDEX 01 00:43:70
  TRACK 37 AUDIO
    TITLE "0:"
    INDEX 01 00:47:09
  TRACK 38 AUDIO
    TITLE "7:cjc057_06431"
    INDEX 01 00:48:16
  TRACK 39 AUDIO
    TITLE "0:"
    INDEX 01 00:49:25
  TRACK 40 AUDIO
    TITLE "8:cjc057_06432"
    INDEX 01 00:49:59
  TRACK 41 AUDIO
    TITLE "0:"
    INDEX 01 00:50:48
  TRACK 42 AUDIO
    TITLE "9:cjc057_06433"
    INDEX 01 00:51:18
  TRACK 43 AUDIO
    TITLE "0:"
    INDEX 01 00:53:51
  TRACK 44 AUDIO
    TITLE "7:cjc057_06434"
    INDEX 01 00:54:62
  TRACK 45 AUDIO
    TITLE "0:"
    INDEX 01 00:56:00
  TRACK 46 AUDIO
    TITLE "8:cjc057_06435"
    INDEX 01 00:56:33
  TRACK 47 AUDIO
    TITLE "0:"
    INDEX 01 00:59:02
  TRACK 48 AUDIO
    TITLE "9:cjc057_06436"
    INDEX 01 00:59:47
  TRACK 49 AUDIO
    TITLE "0:"
    INDEX 01 01:02:71
  TRACK 50 AUDIO
    TITLE "7:cjc057_06437"
    INDEX 01 01:04:05
  TRACK 51 AUDIO
    TITLE "0:"
    INDEX 01 01:05:03
  TRACK 52 AUDIO
    TITLE "8:cjc057_06438"
    INDEX 01 01:05:36
  TRACK 53 AUDIO
    TITLE "0:"
    INDEX 01 01:06:36
  TRACK 54 AUDIO
    TITLE "9:cjc057_06439"
    INDEX 01 01:07:06
  TRACK 55 AUDIO
    TITLE "0:"
    INDEX 01 01:09:38
  TRACK 56 AUDIO
    TITLE "7:cjc057_06440"
    INDEX 01 01:10:47
  TRACK 57 AUDIO
    TITLE "0:"
    INDEX 01 01:11:56
  TRACK 58 AUDIO
    TITLE "8:cjc057_06441"
    INDEX 01 01:12:15
  TRACK 59 AUDIO
    TITLE "0:"
    INDEX 01 01:13:24
  TRACK 60 AUDIO
    TITLE "9:cjc057_06442"
    INDEX 01 01:13:67
  TRACK 61 AUDIO
    TITLE "0:"
    INDEX 01 01:17:45
  TRACK 62 AUDIO
    TITLE "7:cjc057_06443"
    INDEX 01 01:18:54
  TRACK 63 AUDIO
    TITLE "0:"
    INDEX 01 01:20:04
  TRACK 64 AUDIO
    TITLE "8:cjc057_06444"
    INDEX 01 01:20:38
  TRACK 65 AUDIO
    TITLE "0:"
    INDEX 01 01:22:11
  TRACK 66 AUDIO
    TITLE "9:cjc057_06445"
    INDEX 01 01:22:56
  TRACK 67 AUDIO
    TITLE "0:"
    INDEX 01 01:25:35
  TRACK 68 AUDIO
    TITLE "7:cjc057_06446"
    INDEX 01 01:26:44
  TRACK 69 AUDIO
    TITLE "0:"
    INDEX 01 01:27:51
  TRACK 70 AUDIO
    TITLE "8:cjc057_06447"
    INDEX 01 01:28:10
  TRACK 71 AUDIO
    TITLE "0:"
    INDEX 01 01:29:11
  TRACK 72 AUDIO
    TITLE "9:cjc057_06448"
    INDEX 01 01:29:56
  TRACK 73 AUDIO
    TITLE "0:"
    INDEX 01 01:32:41
  TRACK 74 AUDIO
    TITLE "7:cjc057_06449"
    INDEX 01 01:33:48
  TRACK 75 AUDIO
    TITLE "0:"
    INDEX 01 01:34:67
  TRACK 76 AUDIO
    TITLE "8:cjc057_06450"
    INDEX 01 01:35:24
  TRACK 77 AUDIO
    TITLE "0:"
    INDEX 01 01:36:33
  TRACK 78 AUDIO
    TITLE "9:cjc057_06451"
    INDEX 01 01:37:03
  TRACK 79 AUDIO
    TITLE "0:"
    INDEX 01 01:40:17
  TRACK 80 AUDIO
    TITLE "7:cjc057_06452"
    INDEX 01 01:41:24
  TRACK 81 AUDIO
    TITLE "0:"
    INDEX 01 01:42:33
  TRACK 82 AUDIO
    TITLE "8:cjc057_06453"
    INDEX 01 01:42:67
  TRACK 83 AUDIO
    TITLE "0:"
    INDEX 01 01:44:24
  TRACK 84 AUDIO
    TITLE "9:cjc057_06454"
    INDEX 01 01:44:68
  TRACK 85 AUDIO
    TITLE "0:"
    INDEX 01 01:47:56
